<?xml version="1.0" standalone="yes"?><svg xmlns="http://www.w3.org/2000/svg" xmlns:xlink="http://www.w3.org/1999/xlink" version="1.1" x="0px" y="0px" viewBox="0 0 512 640" style="enable-background:new 0 0 512 512;zoom: 1;" xml:space="preserve"><g><g><g><g><path d="M428.135986,454.300995 H83.864998 c-2.773,0 -5.022,-2.246 -5.022,-5.02 V24.188 c0,-2.775 2.249,-5.021 5.022,-5.021 h344.271 c2.774,0 5.021,2.246 5.021,5.021 v425.094 C433.156006,452.054993 430.910004,454.300995 428.135986,454.300995 M88.886002,444.26001 h334.228 V29.209 H88.886002 V444.26001 " fill="#ffffff"></path></g><g><path d="M387.789,179.522 H124.215 c-9.218,0 -16.721,-7.555 -16.721,-16.836 V70.4 c0,-9.282 7.502,-16.831 16.721,-16.831 h263.574 c9.217,0 16.716,7.549 16.716,16.831 v92.286 C404.505,171.967 397.006,179.522 387.789,179.522 M124.215,63.611 c-3.684,0 -6.678,3.047 -6.678,6.789 v92.286 c0,3.746 2.994,6.793 6.678,6.793 h263.574 c3.677,0 6.674,-3.047 6.674,-6.793 V70.4 c0,-3.742 -2.997,-6.789 -6.674,-6.789 H124.215 " fill="#ffffff"></path></g><g><path d="M178.89,149.541 h-12.138 v-10.777 h12.138 V149.541 M237.215,128.58 v0.146 c0.146,6.642 -1.752,11.961 -5.993,15.798 c-4.095,3.838 -9.796,5.903 -17.104,5.903 c-7.307,0 -13.301,-2.508 -17.833,-7.232 c-4.533,-4.724 -6.87,-10.778 -6.87,-18.312 v-12.249 c0,-7.383 2.336,-13.437 6.723,-18.312 c4.532,-4.724 10.233,-7.085 17.396,-7.085 c7.454,0 13.446,1.918 17.688,5.756 c4.241,3.989 6.285,9.302 6.139,15.945 l-0.146,0.297 h-11.841 c0,-4.134 -0.876,-7.086 -2.774,-9.302 c-2.05,-2.215 -4.971,-3.248 -9.065,-3.248 c-3.656,0 -6.578,1.476 -8.627,4.427 c-2.19,3.103 -3.213,6.799 -3.213,11.522 v12.249 c0,4.729 1.023,8.567 3.359,11.523 c2.196,2.951 5.263,4.427 9.065,4.427 s6.724,-1.033 8.481,-3.097 c1.898,-2.07 2.774,-5.167 2.774,-9.156 H237.215 M278.88,133.45 c0,-2.363 -0.877,-4.282 -2.482,-5.611 c-1.758,-1.476 -4.68,-2.805 -8.774,-4.135 c-7.307,-2.065 -12.716,-4.573 -16.372,-7.529 c-3.803,-2.805 -5.555,-6.794 -5.555,-11.81 c0,-5.021 2.045,-9.156 6.285,-12.404 c4.241,-3.249 9.649,-4.724 16.373,-4.724 c6.577,0 12.133,1.767 16.228,5.313 c4.24,3.546 6.285,7.978 6.139,13.292 l-0.146,0.296 H278.88 c0,-2.81 -1.022,-5.167 -2.927,-6.793 c-1.897,-1.773 -4.526,-2.659 -7.892,-2.659 c-3.218,0 -5.701,0.74 -7.6,2.216 c-1.757,1.475 -2.634,3.248 -2.634,5.464 c0,2.065 1.021,3.837 2.927,5.167 c1.897,1.329 5.115,2.66 9.79,4.13 c6.728,1.924 11.846,4.432 15.35,7.535 c3.365,3.103 5.117,7.085 5.117,12.107 c0,5.318 -2.044,9.448 -6.138,12.55 c-4.095,2.951 -9.505,4.573 -16.374,4.573 c-6.577,0 -12.278,-1.767 -17.249,-5.167 c-4.971,-3.541 -7.308,-8.411 -7.162,-14.615 v-0.146 h11.986 c0,3.54 1.022,6.351 3.213,7.972 c2.196,1.773 5.263,2.508 9.212,2.508 c3.364,0 5.994,-0.589 7.746,-2.065 C278.003,137.584 278.88,135.812 278.88,133.45 L278.88,133.45 M333.115,133.45 c0,-2.363 -0.875,-4.282 -2.487,-5.611 c-1.607,-1.476 -4.528,-2.805 -8.768,-4.135 c-7.168,-2.065 -12.718,-4.573 -16.374,-7.529 c-3.656,-2.805 -5.556,-6.794 -5.556,-11.81 c0,-5.021 2.19,-9.156 6.433,-12.404 c4.24,-3.249 9.649,-4.724 16.227,-4.724 c6.724,0 12.132,1.767 16.373,5.313 c4.094,3.546 6.139,7.978 5.993,13.292 v0.296 h-11.841 c0,-2.81 -0.875,-5.167 -2.78,-6.793 c-1.898,-1.773 -4.528,-2.659 -8.038,-2.659 c-3.218,0 -5.701,0.74 -7.453,2.216 c-1.757,1.475 -2.78,3.248 -2.78,5.464 c0,2.065 1.023,3.837 2.927,5.167 c1.898,1.329 5.263,2.66 9.937,4.13 c6.729,1.924 11.693,4.432 15.204,7.535 s5.117,7.085 5.117,12.107 c0,5.318 -2.045,9.448 -6.139,12.55 c-4.095,2.951 -9.504,4.573 -16.228,4.573 c-6.577,0 -12.425,-1.767 -17.396,-5.167 c-4.824,-3.541 -7.312,-8.411 -7.161,-14.615 l0.141,-0.146 h11.845 c0,3.54 1.022,6.351 3.359,7.972 c2.196,1.773 5.264,2.508 9.212,2.508 c3.364,0 5.848,-0.589 7.6,-2.065 C332.24,137.584 333.115,135.812 333.115,133.45 L333.115,133.45 " fill="#ffffff"></path></g><g><path d="M390.855,473.934 H121.29 c-2.773,0 -5.022,-2.248 -5.022,-5.021 c0,-2.775 2.249,-5.021 5.022,-5.021 h269.565 c2.776,0 5.021,2.246 5.021,5.021 C395.877,471.686 393.632,473.934 390.855,473.934 " fill="#ffffff"></path></g><g><path d="M366.884,492.834 H145.116 c-2.772,0 -5.021,-2.246 -5.021,-5.021 s2.249,-5.021 5.021,-5.021 h221.768 c2.775,0 5.021,2.246 5.021,5.021 S369.659,492.834 366.884,492.834 " fill="#ffffff"></path></g><g><path d="M295.69,388.004 c-2.774,0 -5.021,-2.246 -5.021,-5.021 s2.246,-5.02 5.021,-5.02 c7.288,0 11.891,-0.178 14.319,-2.641 c2.105,-2.131 3.122,-6.588 3.031,-13.24 l-0.442,-22.527 c-0.555,-16.025 4.753,-25.02 9.312,-29.734 c0.922,-0.957 1.894,-1.822 2.916,-2.604 c-1.008,-0.771 -1.97,-1.633 -2.882,-2.574 c-4.572,-4.732 -9.906,-13.748 -9.342,-29.773 l0.438,-22.644 c0.091,-6.638 -0.926,-11.095 -3.031,-13.225 c-2.429,-2.463 -7.031,-2.639 -14.319,-2.639 c-2.774,0 -5.021,-2.247 -5.021,-5.021 s2.246,-5.021 5.021,-5.021 c7.826,0 15.921,0 21.47,5.63 c4.17,4.23 6.054,10.722 5.913,20.432 l-0.292,16.998 c0,0.006 0,0.01 0,0.016 l0,0 c0,0.004 0,0.01 0,0.014 v0.006 c0,0.006 0,0.006 0,0.006 v0.004 c0,0.004 0,0.004 0,0.004 l-0.142,5.744 c-0.347,9.809 1.976,17.783 6.526,22.496 c2.877,2.977 6.569,4.549 10.673,4.549 c2.775,0 5.022,2.244 5.022,5.02 s-2.247,5.021 -5.022,5.021 c-4.135,0 -7.842,1.566 -10.707,4.537 c-4.527,4.689 -6.835,12.666 -6.497,22.453 l0.146,5.639 c0,0.021 0,0.041 0,0.063 l0.292,16.977 c0.141,9.725 -1.743,16.217 -5.913,20.447 C311.611,388.004 303.517,388.004 295.69,388.004 M216.314,388.004 c-7.83,0 -15.923,0 -21.478,-5.631 c-4.17,-4.23 -6.048,-10.723 -5.913,-20.432 l0.292,-16.992 c0,-0.021 0,-0.041 0,-0.063 l0.146,-5.594 c0.345,-9.832 -1.962,-17.809 -6.489,-22.498 c-2.869,-2.971 -6.572,-4.537 -10.712,-4.537 c-2.772,0 -5.021,-2.246 -5.021,-5.021 s2.249,-5.02 5.021,-5.02 c4.112,0 7.804,-1.572 10.675,-4.549 c4.556,-4.719 6.872,-12.691 6.53,-22.447 l-0.149,-5.793 v-0.004 v-0.004 l0,0 c0,-0.006 0,-0.012 0,-0.012 c0,-0.004 0,-0.01 0,-0.014 l0,0 c0,-0.006 0,-0.01 0,-0.016 l-0.292,-16.982 c-0.136,-9.725 1.743,-16.217 5.913,-20.447 c5.555,-5.63 13.648,-5.63 21.478,-5.63 c2.772,0 5.021,2.246 5.021,5.021 s-2.249,5.021 -5.021,5.021 c-7.295,0 -11.898,0.176 -14.326,2.639 c-2.103,2.13 -3.12,6.587 -3.027,13.241 l0.438,22.677 c0.564,15.977 -4.767,24.986 -9.34,29.721 c-0.911,0.945 -1.874,1.807 -2.877,2.578 c1.02,0.781 1.991,1.652 2.913,2.604 c4.555,4.719 9.866,13.713 9.302,29.779 l-0.436,22.498 c-0.093,6.637 0.924,11.094 3.027,13.225 c2.428,2.463 7.031,2.641 14.326,2.641 c2.772,0 5.021,2.244 5.021,5.02 S219.086,388.004 216.314,388.004 " fill="#ffffff"></path></g></g></g></g></svg>