<?xml version="1.0" standalone="yes"?><svg xmlns="http://www.w3.org/2000/svg" width="2500" height="713" viewBox="0 0 512 146" style="zoom: 1;"><g fill="none" fill-rule="evenodd"><path d="M476.713,60.463 c-.46,.092 -.922,1.107 -.922,1.66 c-.092,3.692 -.184,13.474 -.184,20.118 c0,.185 .276,.554 .553,.554 c1.384,.092 4.706,.184 7.567,.184 c3.968,0 6.275,-.553 7.568,-1.106 c3.321,-1.662 4.89,-5.261 4.89,-9.23 c0,-8.95 -6.275,-12.365 -15.596,-12.365 c-.646,-.092 -2.49,-.092 -3.876,.185 m23.81,41.25 c0,-9.136 -6.737,-14.212 -18.918,-14.212 c-.554,0 -4.43,-.092 -5.353,.092 c-.277,.093 -.645,.278 -.645,.555 c0,6.551 -.093,16.98 .184,21.04 c.184,1.753 1.477,4.245 3.046,4.983 c1.66,.923 5.444,1.107 8.028,1.107 c7.29,0 13.658,-4.06 13.658,-13.565 m-42.634,-46.325 c.922,0 3.69,.276 10.796,.276 c6.737,0 12.089,-.184 18.641,-.184 c8.028,0 19.102,2.86 19.102,14.857 c0,5.906 -4.153,10.613 -9.597,12.92 c-.276,.092 -.276,.276 0,.368 c7.751,1.939 14.581,6.737 14.581,15.78 c0,8.86 -5.537,14.489 -13.566,17.996 c-4.891,2.122 -10.981,2.86 -17.164,2.86 c-4.707,0 -17.349,-.553 -24.362,-.368 c-.738,-.278 .646,-3.6 1.291,-4.153 c1.662,-.093 2.953,-.185 4.707,-.739 c2.492,-.645 2.768,-1.384 3.137,-5.167 c.185,-3.23 .185,-14.674 .185,-22.794 c0,-11.166 .093,-18.733 0,-22.424 c-.092,-2.86 -1.107,-3.784 -3.137,-4.338 c-1.57,-.276 -4.153,-.646 -6.276,-.922 c-.462,-.462 1.107,-3.6 1.662,-3.968 m-53.248,57.399 c2.216,1.752 6.553,2.49 10.429,2.49 c4.983,0 9.966,-.921 14.765,-5.26 c4.891,-4.428 8.305,-11.257 8.305,-22.146 c0,-10.429 -3.968,-18.919 -12.089,-23.901 c-4.614,-2.862 -10.52,-4.06 -17.349,-4.06 c-2.03,0 -3.968,.092 -5.167,.645 c-.278,.185 -.923,1.015 -.923,1.476 c-.185,1.846 -.185,16.057 -.185,24.363 c0,8.582 0,20.579 .185,21.963 c0,1.385 .645,3.507 2.03,4.43 m-20.948,-57.4 c1.754,0 8.49,.277 11.72,.277 c5.815,0 9.967,-.276 20.948,-.276 c9.228,0 16.98,2.491 22.517,7.197 c6.736,5.814 10.244,13.843 10.244,23.624 c0,13.935 -6.368,21.964 -12.736,26.578 c-6.366,4.706 -14.672,7.474 -26.484,7.474 c-6.275,0 -17.072,-.184 -26.024,-.277 h-.092 c-.461,-.83 .738,-4.06 1.476,-4.152 c2.4,-.277 3.046,-.37 4.246,-.83 c1.937,-.739 2.307,-1.754 2.584,-5.168 c.276,-6.368 .184,-14.027 .184,-22.702 c0,-6.182 .092,-18.272 -.093,-22.148 c-.276,-3.229 -1.66,-4.06 -4.429,-4.614 c-1.384,-.276 -3.23,-.646 -5.813,-.922 c-.37,-.647 1.291,-3.507 1.752,-4.06 " fill="#ffffff"></path><path d="M272.033,116.385 c-2.307,-.277 -3.968,-.645 -5.998,-1.568 c-.277,-.185 -.739,-1.107 -.739,-1.477 c-.184,-3.23 -.184,-12.458 -.184,-18.64 c0,-4.984 -.83,-9.321 -2.953,-12.366 c-2.492,-3.508 -6.09,-5.537 -10.705,-5.537 c-4.06,0 -9.505,2.768 -14.027,6.644 c-.092,.092 -.83,.739 -.738,-.277 c0,-1.015 .185,-3.045 .277,-4.43 c.093,-1.292 -.646,-1.937 -.646,-1.937 c-2.953,1.476 -11.258,3.414 -14.304,3.69 c-2.214,.463 -2.768,2.585 -.46,3.323 h.092 c2.49,.738 4.152,1.569 5.443,2.4 c.923,.738 .831,1.753 .831,2.584 c.092,6.92 .092,17.533 -.184,23.347 c-.092,2.307 -.738,3.137 -2.4,3.506 l.185,-.092 c-1.292,.277 -2.307,.553 -3.876,.738 c-.554,.554 -.554,3.507 0,4.153 c1.015,0 6.367,-.277 10.798,-.277 c6.09,0 9.228,.277 10.796,.277 c.646,-.738 .831,-3.507 .462,-4.153 c-1.754,-.092 -3.046,-.276 -4.245,-.646 c-1.661,-.37 -2.123,-1.199 -2.216,-3.137 c-.183,-4.892 -.183,-15.227 -.183,-22.24 c0,-1.938 .553,-2.861 1.106,-3.415 c2.123,-1.845 5.538,-3.137 8.583,-3.137 c2.953,0 4.89,.923 6.367,2.123 c2.03,1.66 2.676,4.06 2.953,5.813 c.461,3.968 .277,11.812 .277,18.641 c0,3.691 -.277,4.614 -1.66,5.075 c-.647,.277 -2.308,.647 -4.246,.83 c-.646,.647 -.461,3.508 0,4.154 c2.676,0 5.814,-.277 10.428,-.277 c5.721,0 9.413,.277 10.89,.277 c.46,-.554 .645,-3.23 .276,-3.969 m25.562,-35.25 c-4.89,0 -7.936,3.783 -7.936,9.688 c0,5.999 2.676,12.92 10.243,12.92 c1.292,0 3.692,-.554 4.798,-1.846 c1.754,-1.66 2.954,-4.983 2.954,-8.49 c0,-7.659 -3.784,-12.273 -10.059,-12.273 m-.646,40.787 c-1.845,0 -3.138,.554 -3.968,1.016 c-3.876,2.49 -5.629,4.89 -5.629,7.752 c0,2.675 1.015,4.797 3.23,6.643 c2.676,2.307 6.367,3.415 11.073,3.415 c9.413,0 13.566,-5.076 13.566,-10.058 c0,-3.508 -1.754,-5.815 -5.352,-7.106 c-2.584,-1.108 -7.29,-1.662 -12.92,-1.662 m.646,23.994 c-5.629,0 -9.69,-1.2 -13.196,-3.876 c-3.415,-2.584 -4.891,-6.46 -4.891,-9.136 c0,-.738 .185,-2.769 1.846,-4.614 c1.014,-1.108 3.23,-3.23 8.49,-6.829 c.184,-.092 .276,-.184 .276,-.37 c0,-.184 -.185,-.369 -.369,-.46 c-4.337,-1.661 -5.629,-4.338 -5.999,-5.814 v-.185 c-.091,-.554 -.276,-1.107 .555,-1.661 c.646,-.461 1.569,-1.015 2.583,-1.66 c1.569,-.924 3.23,-1.939 4.245,-2.77 c.185,-.184 .185,-.368 .185,-.553 c0,-.185 -.185,-.37 -.37,-.461 c-6.458,-2.123 -9.688,-6.922 -9.688,-14.12 c0,-4.706 2.122,-8.951 5.905,-11.627 c2.584,-2.03 9.044,-4.522 13.289,-4.522 h.277 c4.337,.092 6.736,1.015 10.15,2.215 c1.846,.646 3.6,.922 6,.922 c3.598,0 5.167,-1.107 6.458,-2.398 c.093,.184 .278,.646 .37,1.845 c.092,1.2 -.277,2.953 -1.2,4.245 c-.738,1.015 -2.399,1.754 -4.06,1.754 h-.462 c-1.661,-.185 -2.4,-.37 -2.4,-.37 l-.368,.185 c-.092,.185 0,.369 .092,.646 l.093,.185 c.184,.83 .553,3.321 .553,3.968 c0,7.567 -3.045,10.888 -6.275,13.38 c-3.138,2.307 -6.736,3.783 -10.797,4.153 c-.092,0 -.46,0 -1.292,.092 c-.461,0 -1.107,.093 -1.2,.093 h-.092 c-.738,.184 -2.583,1.107 -2.583,2.675 c0,1.384 .83,3.046 4.798,3.323 c.83,.092 1.66,.092 2.584,.185 c5.26,.368 11.812,.83 14.857,1.845 c4.245,1.568 6.921,5.352 6.921,9.874 c0,6.83 -4.89,13.197 -13.011,17.164 c-3.968,1.754 -7.937,2.677 -12.274,2.677 m52.6,-64.32 c-1.937,0 -3.691,.46 -4.983,1.383 c-3.598,2.215 -5.444,6.645 -5.444,13.104 c0,12.09 6.09,20.58 14.765,20.58 c2.584,0 4.614,-.739 6.367,-2.215 c2.676,-2.216 4.061,-6.645 4.061,-12.828 c0,-11.996 -5.999,-20.025 -14.765,-20.025 m1.662,39.496 c-15.688,0 -21.317,-11.535 -21.317,-22.332 c0,-7.567 3.045,-13.381 9.135,-17.534 c4.338,-2.676 9.506,-4.152 14.12,-4.152 c11.996,0 20.394,8.582 20.394,20.948 c0,8.397 -3.322,15.041 -9.69,19.102 c-3.045,2.03 -8.305,3.968 -12.643,3.968 h.001 M187.411,81.595 c-1.938,0 -3.691,.461 -4.984,1.384 c-3.598,2.215 -5.444,6.645 -5.444,13.104 c0,12.09 6.09,20.58 14.765,20.58 c2.584,0 4.614,-.739 6.368,-2.215 c2.675,-2.216 4.06,-6.645 4.06,-12.828 c0,-11.996 -5.906,-20.025 -14.765,-20.025 m1.661,39.497 c-15.688,0 -21.317,-11.535 -21.317,-22.332 c0,-7.567 3.045,-13.381 9.135,-17.534 c4.338,-2.676 9.506,-4.152 14.12,-4.152 c11.997,0 20.394,8.582 20.394,20.948 c0,8.397 -3.322,15.041 -9.69,19.102 c-2.953,2.03 -8.213,3.968 -12.642,3.968 m-105.478,-.923 c-.185,-.276 -.37,-1.107 -.277,-2.122 c0,-.739 .185,-1.2 .277,-1.384 c1.938,-.278 2.953,-.555 4.06,-.831 c1.846,-.462 2.584,-1.476 2.676,-3.783 c.278,-5.537 .278,-16.058 .185,-23.348 v-.185 c0,-.83 0,-1.846 -1.015,-2.584 c-1.477,-.922 -3.23,-1.752 -5.537,-2.4 c-.83,-.275 -1.384,-.737 -1.292,-1.29 c0,-.554 .554,-1.2 1.754,-1.385 c3.045,-.277 10.98,-2.214 14.118,-3.599 c.185,.184 .462,.739 .462,1.477 l-.092,1.014 c-.093,1.016 -.185,2.216 -.185,3.415 c0,.369 .37,.646 .738,.646 c.185,0 .37,-.092 .554,-.185 c5.906,-4.614 11.258,-6.275 14.026,-6.275 c4.523,0 8.03,2.123 10.706,6.552 c.184,.278 .369,.37 .646,.37 c.184,0 .46,-.092 .553,-.277 c5.445,-4.153 10.89,-6.645 14.488,-6.645 c8.582,0 13.658,6.368 13.658,17.165 c0,3.045 0,7.013 -.092,10.613 c0,3.229 -.092,6.182 -.092,8.305 c0,.46 .645,1.937 1.66,2.214 c1.292,.646 3.046,.923 5.353,1.292 h.092 c.185,.646 -.184,3.045 -.553,3.507 c-.554,0 -1.385,0 -2.307,-.092 a136.208,136.208 0 0 0 -7.014,-.185 c-5.721,0 -8.674,.092 -11.536,.277 c-.183,-.738 -.276,-2.953 0,-3.507 c1.662,-.276 2.492,-.554 3.508,-.83 c1.846,-.554 2.307,-1.385 2.4,-3.784 c0,-1.753 .368,-16.703 -.186,-20.302 c-.553,-3.691 -3.322,-8.028 -9.413,-8.028 c-2.307,0 -5.905,.923 -9.412,3.598 c-.184,.185 -.37,.646 -.37,.923 v.093 c.37,1.937 .37,4.153 .37,7.567 v5.998 c0,4.153 -.093,8.029 0,10.981 c0,2.031 1.2,2.492 2.215,2.862 c.554,.091 .922,.184 1.384,.276 c.83,.185 1.661,.37 2.953,.646 c.185,.37 .185,1.569 -.092,2.584 c-.093,.554 -.278,.83 -.37,.923 c-3.137,-.092 -6.367,-.185 -11.073,-.185 c-1.384,0 -3.784,.093 -5.814,.093 c-1.662,0 -3.23,.092 -4.152,.092 c-.093,-.185 -.278,-.83 -.278,-1.846 c0,-.83 .185,-1.476 .37,-1.661 c.461,-.092 .83,-.184 1.292,-.184 c1.106,-.185 2.03,-.37 2.952,-.554 c1.57,-.461 2.123,-1.292 2.215,-3.322 c.277,-4.614 .554,-17.81 -.092,-21.133 c-1.107,-5.352 -4.152,-8.028 -9.044,-8.028 c-2.86,0 -6.46,1.384 -9.412,3.6 c-.462,.368 -.831,1.29 -.831,2.121 v5.445 c0,6.644 0,14.95 .092,18.549 c.093,1.106 .461,2.399 2.584,2.86 c.462,.092 1.2,.277 2.123,.37 l1.66,.276 c.186,.554 .093,2.769 -.276,3.507 c-.923,0 -2.03,-.092 -3.323,-.092 c-1.937,-.093 -4.429,-.185 -7.197,-.185 c-3.23,0 -5.537,.092 -7.383,.185 c-1.292,-.185 -2.307,-.185 -3.414,-.185 " fill="#ffffff"></path><path d="M35.053 142.317l-3.783-1.293s.462-19.286-6.46-20.67c-4.613-5.353.74-227.013 17.35-.739 0 0-5.722 2.86-6.737 7.752-1.108 4.799-.37 14.95-.37 14.95z" fill="#FFF"></path><path d="M35.053 142.317l-3.783-1.293s.462-19.286-6.46-20.67c-4.613-5.353.74-227.013 17.35-.739 0 0-5.722 2.86-6.737 7.752-1.108 4.799-.37 14.95-.37 14.95z" fill="#A6A385"></path><path d="M37.084 123.676s33.13-21.779 25.377-67.09c-7.474-32.943-25.1-43.74-27.038-47.893C33.301 5.74 31.27.573 31.27.573l1.385 91.634c0 .093-2.861 28.054 4.43 31.47" fill="#FFF"></path><path d="M37.084,123.676 s33.13,-21.779 25.377,-67.09 c-7.474,-32.943 -25.1,-43.74 -27.038,-47.893 C33.301,5.74 31.27,.573 31.27,.573 l1.385,91.634 c0,.093 -2.861,28.054 4.43,31.47 " fill="#fffff1"></path><path d="M29.333 124.875S-1.767 103.65.079 66.277C1.832 28.903 23.795 10.539 28.04 7.217c2.769-2.953 2.861-4.061 3.046-7.014 1.938 4.153 1.569 62.106 1.845 68.934.83 26.3-1.476 50.756-3.598 55.738z" fill="#FFF"></path><path d="M29.333,124.875 S-1.767,103.65 .079,66.277 C1.832,28.903 23.795,10.539 28.04,7.217 c2.769,-2.953 2.861,-4.061 3.046,-7.014 c1.938,4.153 1.569,62.106 1.845,68.934 c.83,26.3 -1.476,50.756 -3.598,55.738 " fill="#ffffff"></path></g></svg>