<?xml version="1.0" encoding="UTF-8" standalone="yes"?><svg xmlns="http://www.w3.org/2000/svg" xmlns:xlink="http://www.w3.org/1999/xlink" width="256px" height="289px" viewBox="0 0 256 289" version="1.1" preserveAspectRatio="xMidYMid" style="zoom: 1;"><g><path d="M128,288.463776 C124.024841,288.463776 120.314697,287.403717 116.86956,285.548645 L81.623192,264.612823 C76.322983,261.697723 78.973083,260.637695 80.563148,260.107666 C87.71843,257.722565 89.04348,257.192535 96.463768,252.952377 C97.258797,252.422363 98.31884,252.687378 99.113869,253.217392 L126.144928,269.383026 C127.204971,269.913055 128.530014,269.913055 129.325058,269.383026 L235.064178,208.165634 C236.124222,207.635605 236.654251,206.575577 236.654251,205.250519 L236.654251,83.08075 C236.654251,81.755692 236.124222,80.695656 235.064178,80.165634 L129.325058,19.213251 C128.265015,18.683231 126.939957,18.683231 126.144928,19.213251 L20.405796,80.165634 C19.345755,80.695656 18.815735,82.020706 18.815735,83.08075 L18.815735,205.250519 C18.815735,206.310562 19.345755,207.635605 20.405796,208.165634 L49.291924,224.861282 C64.927536,232.8116 74.732918,223.53624 74.732918,214.260864 L74.732918,93.68116 C74.732918,92.091095 76.057968,90.501038 77.91304,90.501038 L91.428574,90.501038 C93.018631,90.501038 94.608696,91.826088 94.608696,93.68116 L94.608696,214.260864 C94.608696,235.196686 83.213249,247.387161 63.337475,247.387161 C57.242237,247.387161 52.47205,247.387161 38.95652,240.761902 L11.130435,224.861282 C4.240166,220.886124 0,213.465836 0,205.515533 L0,83.345757 C0,75.395447 4.240166,67.975159 11.130435,64 L116.86956,2.782608 C123.494827,-0.927536 132.505173,-0.927536 139.130432,2.782608 L244.869568,64 C251.759827,67.975159 256,75.395447 256,83.345757 L256,205.515533 C256,213.465836 251.759827,220.886124 244.869568,224.861282 L139.130432,286.078674 C135.685303,287.668732 131.710144,288.463776 128,288.463776 L128,288.463776 M160.596268,204.45549 C114.21946,204.45549 104.679092,183.254654 104.679092,165.233948 C104.679092,163.64389 106.004143,162.053833 107.859215,162.053833 L121.639755,162.053833 C123.229813,162.053833 124.554863,163.113876 124.554863,164.703934 C126.67495,178.749481 132.770187,185.639755 160.861282,185.639755 C183.122147,185.639755 192.662521,180.604553 192.662521,168.679092 C192.662521,161.788818 190.012421,156.753632 155.296066,153.308487 C126.409935,150.393372 108.389236,144.033127 108.389236,120.977226 C108.389236,99.511391 126.409935,86.790894 156.621124,86.790894 C190.54245,86.790894 207.238098,98.451347 209.358185,123.892342 C209.358185,124.68737 209.09317,125.482407 208.563141,126.277435 C208.033127,126.807457 207.238098,127.337471 206.443069,127.337471 L192.662521,127.337471 C191.337479,127.337471 190.012421,126.277435 189.747406,124.952385 C186.567291,110.376816 178.351959,105.606628 156.621124,105.606628 C132.240158,105.606628 129.325058,114.08696 129.325058,120.447205 C129.325058,128.132507 132.770187,130.517593 165.63147,134.757767 C198.227737,138.997925 213.598343,145.09317 213.598343,167.884064 C213.333328,191.204971 194.252594,204.45549 160.596268,204.45549 L160.596268,204.45549 " fill="#ffffff"></path></g></svg>