<?xml version="1.0" standalone="yes"?><svg xmlns="http://www.w3.org/2000/svg" width="411" height="155" viewBox="0 0 411 155" style="zoom: 1;"><g fill="#CC0000" fill-rule="evenodd" transform="translate(8 8)"><path d="M344.6,121.5 L344.6,139.6 L377.3,139.6 C384,139.6 395.5,134.7 395.9,121 L395.9,114 C395.9,102.3 386.3,95.4 377.3,95.4 L361,95.4 L361,87 L393.3,87 L393.3,68.8 L362.3,68.8 C354.3,68.8 343.6,75.4 343.6,87.7 L343.6,94 C343.6,106.3 354.2,112.6 362.3,112.6 C384.8,112.7 356.9,112.6 377.7,112.6 L377.7,121.4 M169.4,117.1 C169.4,117.1 186.9,115.6 186.9,93 C186.9,70.4 165.7,68.3 165.7,68.3 L127.5,68.3 L127.5,139.6 L146.7,139.6 L146.7,122.4 L163.3,139.6 L191.7,139.6 L169.4,117.1 M162,102.5 L146.7,102.5 L146.7,86.2 L162.1,86.2 C162.1,86.2 166.4,87.8 166.4,94.3 C166.4,100.8 162,102.5 162,102.5 M234.3,68.8 L214.8,68.8 C200.9,68.8 196.2,81.4 196.2,87.4 L196.2,139.6 L215.7,139.6 L215.7,127.1 L234,127.1 L234,139.6 L252.9,139.6 L252.9,87.4 C252.9,72.2 239.1,68.8 234.3,68.8 M234,106.9 L215.6,106.9 L215.6,89.6 C215.6,89.6 215.6,85.7 221.7,85.7 L228.4,85.7 C233.8,85.7 233.9,89.6 233.9,89.6 L233.9,106.9 L234,106.9 " fill="#ffffff"></path><rect x="261.8" y="68.8" fill="#ffffff" width="20.3" height="70.8"></rect><polygon fill="#ffffff" points="310.6 121.3 310.6 68.8 290.4 68.8 290.4 121.3 290.4 139.6 310.6 139.6 337.9 139.6 337.9 121.3"></polygon><path d="M7,139.6 L86,139.6 C86,139.6 70.9,70.7 120.9,42.8 C131.8,37.5 166.5,17.7 223.3,59.7 C225.1,58.2 226.8,57 226.8,57 C226.8,57 174.8,5.1 116.9,10.9 C87.8,13.5 52,40 31,75 C10,110 7,139.6 7,139.6 Z"></path><path d="M7,139.6 L86,139.6 C86,139.6 70.9,70.7 120.9,42.8 C131.8,37.5 166.5,17.7 223.3,59.7 C225.1,58.2 226.8,57 226.8,57 C226.8,57 174.8,5.1 116.9,10.9 C87.8,13.5 52,40 31,75 C10,110 7,139.6 7,139.6 Z"></path><path d="M7,139.6 L86,139.6 C86,139.6 70.9,70.7 120.9,42.8 C131.8,37.5 166.5,17.7 223.3,59.7 C225.1,58.2 226.8,57 226.8,57 C226.8,57 174.8,5.1 116.9,10.9 C87.7,13.5 51.9,40 30.9,75 C9.9,110 7,139.6 7,139.6 M171.6,16.5 L172,9.8 C171.1,9.3 168.6,8.1 162.3,6.3 L161.9,12.9 C165.2,14 168.4,15.2 171.6,16.5 " fill="#ffffff"></path><path d="M162.100006,37.700001 L161.699997,44 C165,44.099998 168.300003,44.5 171.600006,45.200001 L172,39 C168.600006,38.299999 165.300003,37.900002 162.100006,37.700001 M125.099998,6.5 L126.099998,6.5 L124.099998,0.4 C121,0.4 117.800003,0.6 114.5,1 L116.400002,6.9 C119.300003,6.6 122.199997,6.5 125.099998,6.5 M129.899994,43.299999 L132.199997,50.200001 C135.100006,48.799999 138,47.599998 140.899994,46.700001 L138.699997,40.099998 C135.300003,41.099998 132.399994,42.200001 129.899994,43.299999 M84.5,17 L80,10.1 C77.5,11.4 74.900002,12.8 72.199997,14.4 L76.800003,21.4 C79.400002,19.799999 81.900002,18.299999 84.5,17 M105,62 L109.800003,69.199997 C111.5,66.699997 113.5,64.400002 115.699997,62.099998 L111.199997,55.299999 C108.900002,57.400002 106.800003,59.700001 105,62 M90.5,94.199997 L98.599998,100.599998 C99,96.699997 99.699997,92.800003 100.699997,88.900002 L93.5,83.199997 C92.199997,86.900002 91.300003,90.599998 90.5,94.199997 M46.700001,46.700001 L39.599998,40.5 C37,43 34.5,45.5 32.200001,48 L39.900002,54.599998 C42,51.900002 44.299999,49.200001 46.700001,46.700001 M16.5,91.400002 L5,87.199997 C3.1,91.5 1,96.5 0,99.199997 L11.5,103.400002 C12.8,100 14.9,95.099998 16.5,91.400002 M89,119.599998 C89.199997,124.900002 89.699997,129.199997 90.199997,132.199997 L102.199997,136.5 C101.300003,132.600006 100.400002,128.199997 99.800003,123.5 L89,119.599998 " fill="#ffffff"></path></g></svg>