<?xml version="1.0" encoding="utf-8" standalone="yes"?>
<!DOCTYPE svg PUBLIC "-//W3C//DTD SVG 1.1//EN" "http://www.w3.org/Graphics/SVG/1.1/DTD/svg11.dtd">
<!-- Generator: Adobe Illustrator 18.0.0, SVG Export Plug-In . SVG Version: 6.00 Build 0)  --><svg xmlns="http://www.w3.org/2000/svg" xmlns:xlink="http://www.w3.org/1999/xlink" version="1.1" id="Layer_2_1_" x="0px" y="0px" viewBox="0 0 841.9 595.3" enable-background="new 0 0 841.9 595.3" xml:space="preserve" style="zoom: 1;"><g><path fill="#FFFFFF" d="M666.3,296.5 c0,-32.5 -40.7,-63.3 -103.1,-82.4 c14.4,-63.6 8,-114.2 -20.2,-130.4 c-6.5,-3.8 -14.1,-5.6 -22.4,-5.6 v22.3 c4.6,0 8.3,0.9 11.4,2.6 c13.6,7.8 19.5,37.5 14.9,75.7 c-1.1,9.4 -2.9,19.3 -5.1,29.4 c-19.6,-4.8 -41,-8.5 -63.5,-10.9 c-13.5,-18.5 -27.5,-35.3 -41.6,-50 c32.6,-30.3 63.2,-46.9 84,-46.9 l0,-22.3 c0,0 0,0 0,0 c-27.5,0 -63.5,19.6 -99.9,53.6 c-36.4,-33.8 -72.4,-53.2 -99.9,-53.2 v22.3 c20.7,0 51.4,16.5 84,46.6 c-14,14.7 -28,31.4 -41.3,49.9 c-22.6,2.4 -44,6.1 -63.6,11 c-2.3,-10 -4,-19.7 -5.2,-29 c-4.7,-38.2 1.1,-67.9 14.6,-75.8 c3,-1.8 6.9,-2.6 11.5,-2.6 l0,-22.3 c0,0 0,0 0,0 c-8.4,0 -16,1.8 -22.6,5.6 c-28.1,16.2 -34.4,66.7 -19.9,130.1 c-62.2,19.2 -102.7,49.9 -102.7,82.3 c0,32.5 40.7,63.3 103.1,82.4 c-14.4,63.6 -8,114.2 20.2,130.4 c6.5,3.8 14.1,5.6 22.5,5.6 c27.5,0 63.5,-19.6 99.9,-53.6 c36.4,33.8 72.4,53.2 99.9,53.2 c8.4,0 16,-1.8 22.6,-5.6 c28.1,-16.2 34.4,-66.7 19.9,-130.1 C625.8,359.7 666.3,328.9 666.3,296.5 M536.1,229.8 c-3.7,12.9 -8.3,26.2 -13.5,39.5 c-4.1,-8 -8.4,-16 -13.1,-24 c-4.6,-8 -9.5,-15.8 -14.4,-23.4 C509.3,224 523,226.6 536.1,229.8 M490.3,336.3 c-7.8,13.5 -15.8,26.3 -24.1,38.2 c-14.9,1.3 -30,2 -45.2,2 c-15.1,0 -30.2,-0.7 -45,-1.9 c-8.3,-11.9 -16.4,-24.6 -24.2,-38 c-7.6,-13.1 -14.5,-26.4 -20.8,-39.8 c6.2,-13.4 13.2,-26.8 20.7,-39.9 c7.8,-13.5 15.8,-26.3 24.1,-38.2 c14.9,-1.3 30,-2 45.2,-2 c15.1,0 30.2,0.7 45,1.9 c8.3,11.9 16.4,24.6 24.2,38 c7.6,13.1 14.5,26.4 20.8,39.8 C504.7,309.8 497.8,323.2 490.3,336.3 M522.6,323.3 c5.4,13.4 10,26.8 13.8,39.8 c-13.1,3.2 -26.9,5.9 -41.2,8 c4.9,-7.7 9.8,-15.6 14.4,-23.7 C514.2,339.4 518.5,331.3 522.6,323.3 M421.2,430 c-9.3,-9.6 -18.6,-20.3 -27.8,-32 c9,0.4 18.2,0.7 27.5,0.7 c9.4,0 18.7,-0.2 27.8,-0.7 C439.7,409.7 430.4,420.4 421.2,430 M346.8,371.1 c-14.2,-2.1 -27.9,-4.7 -41,-7.9 c3.7,-12.9 8.3,-26.2 13.5,-39.5 c4.1,8 8.4,16 13.1,24 C337.1,355.7 341.9,363.5 346.8,371.1 M420.7,163 c9.3,9.6 18.6,20.3 27.8,32 c-9,-0.4 -18.2,-0.7 -27.5,-0.7 c-9.4,0 -18.7,0.2 -27.8,0.7 C402.2,183.3 411.5,172.6 420.7,163 M346.7,221.9 c-4.9,7.7 -9.8,15.6 -14.4,23.7 c-4.6,8 -8.9,16 -13,24 c-5.4,-13.4 -10,-26.8 -13.8,-39.8 C318.6,226.7 332.4,224 346.7,221.9 M256.2,347.1 c-35.4,-15.1 -58.3,-34.9 -58.3,-50.6 c0,-15.7 22.9,-35.6 58.3,-50.6 c8.6,-3.7 18,-7 27.7,-10.1 c5.7,19.6 13.2,40 22.5,60.9 c-9.2,20.8 -16.6,41.1 -22.2,60.6 C274.3,354.2 264.9,350.8 256.2,347.1 M310,490 c-13.6,-7.8 -19.5,-37.5 -14.9,-75.7 c1.1,-9.4 2.9,-19.3 5.1,-29.4 c19.6,4.8 41,8.5 63.5,10.9 c13.5,18.5 27.5,35.3 41.6,50 c-32.6,30.3 -63.2,46.9 -84,46.9 C316.8,492.6 313,491.7 310,490 M547.2,413.8 c4.7,38.2 -1.1,67.9 -14.6,75.8 c-3,1.8 -6.9,2.6 -11.5,2.6 c-20.7,0 -51.4,-16.5 -84,-46.6 c14,-14.7 28,-31.4 41.3,-49.9 c22.6,-2.4 44,-6.1 63.6,-11 C544.3,394.8 546.1,404.5 547.2,413.8 M585.7,347.1 c-8.6,3.7 -18,7 -27.7,10.1 c-5.7,-19.6 -13.2,-40 -22.5,-60.9 c9.2,-20.8 16.6,-41.1 22.2,-60.6 c9.9,3.1 19.3,6.5 28.1,10.2 c35.4,15.1 58.3,34.9 58.3,50.6 C644,312.2 621.1,332.1 585.7,347.1 "></path><polygon fill="#61DAFB" points="320.8,78.4 320.8,78.4 320.8,78.4"></polygon><circle fill="#FFFFFF" cx="420.9" cy="296.5" r="45.7"></circle><polygon fill="#61DAFB" points="520.5,78.1 520.5,78.1 520.5,78.1"></polygon></g></svg>