<?xml version="1.0" encoding="utf-8" standalone="yes"?><!-- Generator: Adobe Illustrator 22.1.0, SVG Export Plug-In . SVG Version: 6.00 Build 0)  --><svg xmlns="http://www.w3.org/2000/svg" xmlns:xlink="http://www.w3.org/1999/xlink" version="1.1" id="Layer_1" x="0px" y="0px" viewBox="0 0 32 32" style="enable-background:new 0 0 32 32;zoom: 1;" xml:space="preserve"><title>ruby</title><path d="M26.9,0.1 c4,0.7 5.2,3.5 5.1,6.4 l0,0 l-1.8,23.9 L6.5,31.9 c-2,-0.1 -6.3,-0.3 -6.5,-6.4 l2.2,-4 L6,30.299999 l0.7,1.6 l3.7,-12.2 l0,0 l0,0 l12.3,3.9 l-1.9,-7.2 l-1.3,-5.2 l11.8,-0.8 l-0.8,-0.7 L22,2.8 L26.9,0.1 L26.9,0.1 M0,25.5 L0,25.5 L0,25.5 L0,25.5 M6.8,6.8 c4.7,-4.7 10.9,-7.5 13.2,-5.1 c2.3,2.4 -0.1,8.1 -4.9,12.8 C10.4,19.200001 4.4,22.1 2,19.799999 C-0.3,17.4 2.1,11.5 6.8,6.8 L6.8,6.8 " fill="#ffffff"></path></svg>